<svg width="95" height="12" viewBox="0 0 95 12" fill="none" xmlns="http://www.w3.org/2000/svg">
<path d="M5.00361 11.8666L4.48599 8.93348H2.243L1.72538 11.8666H0L2.5018 0.134033H4.18405L6.68585 11.9098C6.72899 11.8666 5.00361 11.8666 5.00361 11.8666ZM4.22718 7.63944L3.36449 2.98091L2.5018 7.63944H4.22718Z" fill="#E9652B"/>
<path d="M0.0864258 11.7805L2.58823 0.220459H4.14107L6.59974 11.8236H5.0469L4.52928 8.8905H2.20002L1.63927 11.8236H0.0864258V11.7805ZM2.41569 7.72587H4.31361L3.36465 2.46345L2.41569 7.72587Z" fill="#E9652B"/>
<path d="M7.76416 11.8666V0.134033H10.3522C11.6463 0.134033 12.5521 0.435975 13.0697 0.996724C13.5873 1.55747 13.8461 2.50643 13.8461 3.75733V8.02765C13.8461 9.32169 13.5873 10.2706 13.0697 10.9177C12.5521 11.5647 11.6894 11.9098 10.4816 11.9098L7.76416 11.8666ZM10.3522 10.5295C10.5679 10.5295 10.7836 10.5295 10.9992 10.4432C11.1718 10.4001 11.3012 10.3569 11.4306 10.2706C11.56 10.1844 11.6463 10.0981 11.7325 9.96871C11.8188 9.8393 11.8619 9.7099 11.9051 9.5805C11.9482 9.40796 11.9913 9.23542 11.9913 9.01975C12.0345 8.76094 12.0345 8.5884 12.0345 8.37273C12.0345 8.15706 12.0345 7.94138 12.0345 7.59631V3.23972C12.0345 3.06718 11.9913 2.85151 11.9913 2.67897C11.9913 2.54957 11.9482 2.37703 11.8619 2.24763C11.8188 2.11822 11.7325 2.03195 11.6463 1.90255C11.56 1.81628 11.4737 1.73001 11.3443 1.68688C11.2149 1.64374 11.0424 1.60061 10.913 1.55747C10.6973 1.51434 10.5248 1.51434 10.3091 1.51434H9.48954V10.5726C9.53268 10.5295 10.3522 10.5295 10.3522 10.5295Z" fill="#E9652B"/>
<path d="M7.85059 11.7805V0.220459H10.3524C11.6033 0.220459 12.5091 0.522401 12.9836 1.08315C13.5443 1.6439 13.8032 2.50659 13.8032 3.75749V8.02781C13.8032 9.32184 13.5443 10.2277 13.0267 10.8747C12.5091 11.5217 11.6896 11.8236 10.4818 11.8236C10.4818 11.7805 7.85059 11.7805 7.85059 11.7805ZM9.44656 10.6159H10.3524C10.5681 10.6159 10.7837 10.6159 10.9994 10.5296C11.1719 10.4865 11.3445 10.4433 11.4739 10.3571C11.6033 10.2708 11.7327 10.1845 11.7758 10.012C11.8621 9.88259 11.9052 9.75319 11.9915 9.58065C12.0346 9.40811 12.0778 9.19244 12.0778 9.0199C12.1209 8.7611 12.1209 8.54542 12.1209 8.37288C12.1209 8.20035 12.1209 7.94154 12.1209 7.59646V3.23988C12.1209 3.06734 12.0778 2.85167 12.0778 2.67913C12.0778 2.50659 12.0346 2.33405 11.9484 2.20465C11.9052 2.07524 11.819 1.94584 11.7327 1.85957C11.6464 1.7733 11.517 1.6439 11.3876 1.60076C11.2582 1.51449 11.0857 1.47136 10.9131 1.47136C10.6975 1.42823 10.5249 1.42823 10.3093 1.42823H9.44656V10.6159Z" fill="#E9652B"/>
<path d="M18.4187 11.9961C17.9873 11.9961 17.5129 11.9529 17.0815 11.7804C16.3914 11.5647 15.8306 11.0471 15.5718 10.357C15.4424 10.0119 15.313 9.62367 15.2699 9.23546C15.2267 8.76098 15.1836 8.32964 15.1836 7.85516V0.0909424H16.909V7.94143C16.909 8.2865 16.909 8.54531 16.9521 8.80412C16.9521 9.06292 16.9952 9.2786 17.0815 9.49427C17.1246 9.70994 17.2109 9.88248 17.3403 10.055C17.4697 10.1844 17.5991 10.3138 17.7717 10.4001C17.9873 10.4864 18.203 10.5295 18.4187 10.5295C18.6344 10.5295 18.85 10.4864 19.0657 10.4001C19.2382 10.3138 19.3676 10.1844 19.497 10.055C19.6265 9.88248 19.7127 9.70994 19.7559 9.49427C19.8421 9.2786 19.8421 9.06292 19.8421 8.80412C19.8421 8.54531 19.8853 8.2865 19.8853 7.94143V0.134077H21.6106V7.89829C21.6106 8.37277 21.6106 8.80412 21.5244 9.2786C21.4812 9.66681 21.395 10.055 21.2224 10.4001C20.9636 11.0902 20.446 11.6079 19.7559 11.8235C19.3245 11.9529 18.8932 11.9961 18.4187 11.9961Z" fill="#E9652B"/>
<path d="M19.7127 11.7374C18.85 11.9962 17.9873 11.9962 17.1246 11.7374C16.7796 11.6511 16.4776 11.4786 16.2619 11.2198C16.0031 10.961 15.8306 10.7022 15.7012 10.3571C15.5718 10.012 15.4855 9.62379 15.3993 9.23558C15.3561 8.80423 15.313 8.32975 15.313 7.89841V0.220459H16.8658V7.98467C16.8658 8.32975 16.8658 8.58856 16.909 8.84737C16.909 9.10617 16.9521 9.32185 17.0384 9.58065C17.0815 9.79633 17.1678 10.012 17.2972 10.1845C17.4266 10.3571 17.556 10.4433 17.7285 10.5727C18.1599 10.7884 18.6775 10.7884 19.1088 10.5727C19.2814 10.4865 19.4108 10.3571 19.5402 10.1845C19.6696 10.012 19.7558 9.79633 19.799 9.58065C19.8852 9.36498 19.8852 9.10617 19.9284 8.84737C19.9284 8.58856 19.9715 8.32975 19.9715 7.98467V0.220459H21.5244V7.89841C21.5244 8.32975 21.5244 8.80423 21.4381 9.23558C21.395 9.62379 21.3087 10.012 21.1793 10.3571C21.0499 10.7022 20.8773 10.961 20.6185 11.2198C20.3166 11.4354 20.0578 11.608 19.7127 11.7374Z" fill="#E9652B"/>
<path d="M27.6058 11.8666L26.0529 6.43167H24.9746V11.8666H23.2061V0.134033H25.6216C26.8294 0.134033 27.692 0.39284 28.2528 0.86732C28.8135 1.3418 29.1155 2.16136 29.1155 3.28285C29.1155 4.74943 28.641 5.69839 27.692 6.04346L29.3312 11.8666H27.6058ZM25.4922 5.0945C26.0098 5.13764 26.5274 5.00823 26.9588 4.70629C27.2607 4.44749 27.3901 3.97301 27.3901 3.28285C27.4332 2.76524 27.3038 2.29076 27.045 1.85941C26.7431 1.60061 26.3117 1.4712 25.6216 1.4712H24.9746V5.13764C24.9746 5.0945 25.4922 5.0945 25.4922 5.0945Z" fill="#E9652B"/>
<path d="M23.293 11.7805V0.220459H25.6222C26.7869 0.220459 27.6496 0.479266 28.2103 0.953746C28.7711 1.42823 29.0299 2.20465 29.0299 3.28301C29.0299 4.79272 28.5554 5.69854 27.6064 6.00049L29.2455 11.8236H27.6496L26.1398 6.3887H24.8889V11.8236C24.8889 11.7805 23.293 11.7805 23.293 11.7805ZM24.8889 5.18093H25.4928C26.0104 5.22406 26.5712 5.09466 27.0025 4.74958C27.3045 4.49078 27.4339 3.97316 27.4339 3.23988C27.477 2.72226 27.3476 2.20465 27.0457 1.7733C26.7869 1.47136 26.3124 1.34196 25.5791 1.34196H24.8889V5.18093Z" fill="#E9652B"/>
<path d="M33.6884 11.996C33.1708 11.996 32.6532 11.9098 32.1787 11.7372C31.7905 11.5647 31.4022 11.3059 31.1434 10.9608C30.8846 10.6157 30.7121 10.1844 30.5827 9.75304C30.4533 9.23543 30.4102 8.71781 30.4102 8.15706V3.75734C30.4102 2.54958 30.669 1.60062 31.1866 0.953598C31.7042 0.30658 32.5669 0.00463867 33.6884 0.00463867C34.8099 0.00463867 35.6726 0.349715 36.1902 0.996733C36.7509 1.81629 37.0097 2.80838 36.9666 3.80048V8.2002C37.0097 9.19229 36.7509 10.1844 36.1902 11.0471C35.6726 11.651 34.853 11.996 33.6884 11.996ZM33.6884 1.42808C33.4296 1.42808 33.1708 1.47121 32.9551 1.55748C32.7826 1.64375 32.61 1.77315 32.5237 1.94569C32.4375 2.16137 32.3512 2.37704 32.3081 2.59271C32.2649 2.89465 32.2649 3.15346 32.2649 3.4554V8.50214C32.2649 8.80408 32.2649 9.06289 32.3081 9.36483C32.3512 9.5805 32.3943 9.79618 32.5237 10.0118C32.61 10.1844 32.7826 10.3569 32.9551 10.4432C33.4296 10.6157 33.9903 10.6157 34.4648 10.4432C34.6373 10.3569 34.8099 10.2275 34.8961 10.0118C34.9824 9.79618 35.0687 9.5805 35.1118 9.36483C35.155 9.06289 35.155 8.80408 35.155 8.50214V3.41227C35.155 3.11032 35.155 2.85152 35.1118 2.54958C35.0687 2.3339 35.0256 2.11823 34.8961 1.94569C34.8099 1.77315 34.6373 1.64375 34.4648 1.55748C34.206 1.47121 33.9472 1.42808 33.6884 1.42808Z" fill="#E9652B"/>
<path d="M33.6884 11.9097C33.1708 11.9097 32.6963 11.8235 32.2218 11.6509C31.8336 11.4784 31.4885 11.2196 31.2297 10.8745C30.9709 10.5294 30.7984 10.1412 30.7121 9.70986C30.5827 9.19225 30.5396 8.67464 30.5396 8.15702V3.7573C30.5396 2.54953 30.7984 1.64371 31.2728 0.996689C31.7473 0.349671 32.5669 0.0477295 33.6884 0.0477295C34.8099 0.0477295 35.6294 0.349671 36.1039 0.996689C36.6647 1.81625 36.9235 2.76521 36.8372 3.71416V8.11389C36.9235 9.10598 36.6215 10.0549 36.1039 10.9176C35.6294 11.6078 34.8099 11.9097 33.6884 11.9097ZM32.9119 10.4863C33.4296 10.702 33.9903 10.702 34.4648 10.4863C34.6805 10.4 34.8099 10.2275 34.9393 10.0549C35.0687 9.83927 35.1118 9.6236 35.1549 9.40792C35.1981 9.10598 35.2412 8.80404 35.1981 8.5021V3.41222C35.1981 3.11028 35.1981 2.85147 35.1549 2.54953C35.1118 2.33386 35.0255 2.11819 34.9393 1.90251C34.853 1.68684 34.6805 1.55744 34.4648 1.47117C33.9472 1.29863 33.3864 1.29863 32.9119 1.47117C32.6963 1.55744 32.5237 1.68684 32.4375 1.90251C32.3512 2.11819 32.2649 2.33386 32.2218 2.54953C32.1787 2.85147 32.1787 3.11028 32.1787 3.41222V8.5021C32.1787 8.80404 32.1787 9.10598 32.2218 9.40792C32.2649 9.6236 32.3512 9.83927 32.4375 10.0549C32.5669 10.2706 32.6963 10.4 32.9119 10.4863Z" fill="#E9652B"/>
<path d="M46.1105 11.8667L45.5929 8.93352H43.3931L42.8323 11.8667H41.1069L43.6519 0.0909424H45.3341L47.8359 11.8667H46.1105ZM45.3341 7.63948L44.4714 2.98096L43.6087 7.63948H45.3341Z" fill="#E9652B"/>
<path d="M41.1938 11.7803L43.6525 0.177124H45.2054L47.664 11.7803H46.1112L45.5936 8.84716H43.2212L42.6604 11.7803H41.1938ZM43.48 7.72567H45.421L44.4721 2.50639L43.48 7.72567Z" fill="#E9652B"/>
<path d="M48.8716 11.8666V0.134033H51.4597C52.7537 0.134033 53.6595 0.435975 54.1771 0.996724C54.6947 1.55747 54.9536 2.50643 54.9536 3.75733V8.02765C54.9536 9.32169 54.6947 10.2706 54.1771 10.9177C53.6595 11.5647 52.7968 11.9098 51.5891 11.9098L48.8716 11.8666ZM51.4597 10.5295C51.6753 10.5295 51.891 10.5295 52.1067 10.4432C52.2361 10.4001 52.4086 10.3569 52.538 10.2706C52.6674 10.1844 52.7537 10.0981 52.84 9.96871C52.9262 9.8393 52.9694 9.7099 53.0125 9.5805C53.0556 9.40796 53.0988 9.23542 53.0988 9.06288C53.0988 8.80407 53.1419 8.63154 53.1419 8.41586C53.1419 8.20019 53.1419 7.98452 53.1419 7.63944V3.23972C53.1419 3.06718 53.0988 2.85151 53.0988 2.67897C53.0988 2.54957 53.0556 2.37703 52.9694 2.24763C52.9262 2.11822 52.84 2.03195 52.7537 1.90255C52.6674 1.81628 52.5811 1.73001 52.4517 1.68688C52.3223 1.64374 52.1498 1.60061 52.0204 1.55747C51.8047 1.51434 51.6322 1.51434 51.4165 1.51434H50.6401V10.5726L51.4597 10.5295Z" fill="#E9652B"/>
<path d="M48.958 11.7805V0.220459H51.4598C52.7107 0.220459 53.5734 0.522401 54.091 1.08315C54.6086 1.6439 54.8674 2.54972 54.8674 3.75749V8.02781C54.8674 9.32184 54.6086 10.2277 54.091 10.8747C53.5734 11.5217 52.7538 11.8236 51.5461 11.8236C51.5892 11.7805 48.958 11.7805 48.958 11.7805ZM50.554 10.6159H51.4598C51.6755 10.6159 51.8912 10.6159 52.1068 10.5296C52.2794 10.4865 52.4088 10.4433 52.5813 10.3571C52.7107 10.2708 52.8401 10.1845 52.8832 10.012C52.9695 9.88259 53.0127 9.75319 53.0558 9.58065C53.0989 9.40811 53.1421 9.19244 53.1421 9.0199C53.1852 8.7611 53.1852 8.54542 53.1852 8.37288V3.23988C53.1852 3.06734 53.1421 2.85167 53.1421 2.67913C53.0989 2.50659 53.0558 2.33405 53.0127 2.20465C52.9695 2.07524 52.8833 1.94584 52.797 1.85957C52.7107 1.7733 52.5813 1.6439 52.4519 1.60076C52.3225 1.51449 52.15 1.47136 51.9774 1.47136C51.7618 1.42823 51.5461 1.42823 51.3735 1.42823H50.5109L50.554 10.6159Z" fill="#E9652B"/>
<path d="M58.3177 11.8666L55.6865 0.134033H57.3688L59.1373 8.32959L60.8195 0.134033H62.4586L59.8706 11.8666H58.3177Z" fill="#E9652B"/>
<path d="M58.4045 11.7803L55.8164 0.177124H57.3261L59.1378 8.71776L60.8632 0.177124H62.3297L59.7417 11.7803H58.4045Z" fill="#E9652B"/>
<path d="M65.435 0.134033H63.6665V11.9098H65.435V0.134033Z" fill="#E9652B"/>
<path d="M63.7529 11.7805V0.220459H65.3489V11.8236H63.7529V11.7805Z" fill="#E9652B"/>
<path d="M70.0073 11.996C69.1446 12.0392 68.325 11.6941 67.7211 11.0471C67.1604 10.3138 66.8584 9.4511 66.8584 8.54527V8.45901L68.4544 8.02766V8.11393C68.5407 9.75304 69.0583 10.5295 70.0073 10.5295C70.3523 10.5295 70.6543 10.4432 70.9131 10.2275C71.1288 9.96871 71.215 9.62364 71.1719 9.27856C71.1719 9.06289 71.1288 8.84722 71.0856 8.63154C71.0425 8.41587 70.9131 8.24333 70.8268 8.0708C70.6974 7.89826 70.568 7.76885 70.4386 7.59632C70.3092 7.46691 70.1367 7.29437 69.921 7.12184L67.9799 5.39645C67.6349 5.05138 67.3329 4.66317 67.1172 4.23182C66.9016 3.75734 66.8153 3.28286 66.8584 2.76525C66.8153 2.03196 67.0741 1.29867 67.6349 0.737924C68.1956 0.22031 68.9289 -0.0384971 69.6622 0.0046374H69.7485C70.5249 -0.0384971 71.2582 0.22031 71.8189 0.737924C72.3365 1.38494 72.6385 2.2045 72.6816 3.06719V3.15346L71.1288 3.5848V3.49853C71.1288 3.23973 71.0856 3.02405 71.0425 2.85152C70.9994 2.67898 70.9562 2.46331 70.87 2.29077C70.8268 2.11823 70.7405 1.98883 70.6111 1.81629C70.5249 1.68688 70.3523 1.60062 70.2229 1.55748C70.0504 1.51435 69.921 1.47121 69.7485 1.47121H69.6622C68.8426 1.51435 68.4544 1.90256 68.4544 2.63584C68.4544 2.93779 68.4976 3.19659 68.627 3.4554C68.7995 3.71421 68.972 3.97301 69.1877 4.14555L71.1288 5.87093C71.6032 6.30228 72.0346 6.77676 72.3365 7.33751C72.6385 7.89826 72.811 8.50214 72.811 9.14916C72.8541 9.92558 72.5522 10.6589 71.9914 11.2196C71.4738 11.7372 70.7405 12.0392 70.0073 11.996Z" fill="#E9652B"/>
<path d="M70.0073 11.9098C69.1877 11.9529 68.325 11.6509 67.7643 11.0039C67.2036 10.3138 66.9016 9.45108 66.9016 8.54526L68.325 8.15705C68.4113 9.83929 68.9721 10.6589 69.9642 10.6589C70.3092 10.702 70.6543 10.5726 70.9131 10.3138C71.1288 10.0118 71.2582 9.66676 71.2582 9.27854C71.2582 9.06287 71.2151 8.80406 71.1719 8.58839C71.1288 8.37272 70.9994 8.15705 70.87 7.98451C70.7406 7.81197 70.6112 7.68257 70.4818 7.51003C70.3524 7.38063 70.1798 7.20809 69.9642 7.03555L68.0231 5.31017C67.678 5.00823 67.3761 4.62002 67.1604 4.18867C66.9879 3.71419 66.9016 3.23971 66.9016 2.76523C66.8585 2.03194 67.1173 1.34179 67.6349 0.781042C68.1956 0.306562 68.8858 0.0477548 69.6191 0.0477548C70.3955 -0.0385142 71.1288 0.220293 71.6895 0.781042C72.2072 1.42806 72.5091 2.24762 72.5091 3.06717L71.2151 3.45538C71.2151 3.23971 71.1719 3.02404 71.1288 2.76523C71.0857 2.54956 71.0425 2.37702 70.9563 2.16135C70.9131 1.98881 70.7837 1.81627 70.6974 1.68687C70.568 1.55746 70.4386 1.47119 70.2661 1.38493C70.0936 1.29866 69.8779 1.29866 69.6622 1.29866C68.7995 1.34179 68.3682 1.77314 68.3682 2.54956C68.3682 2.8515 68.4113 3.15344 68.5407 3.41225C68.7133 3.67106 68.8858 3.92986 69.1446 4.14554L71.0857 5.87092C71.5601 6.30226 71.9915 6.77674 72.2934 7.33749C72.5954 7.85511 72.7679 8.50212 72.7679 9.10601C72.811 9.83929 72.5091 10.5726 71.9915 11.1333C71.4307 11.6941 70.7406 11.9529 70.0073 11.9098Z" fill="#E9652B"/>
<path d="M77.0385 11.996C76.5209 11.996 76.0033 11.9098 75.5288 11.7372C75.1406 11.5647 74.7523 11.3059 74.4935 10.9608C74.2347 10.6157 74.0622 10.1844 73.9328 9.75304C73.8034 9.23543 73.7603 8.71781 73.7603 8.15706V3.75734C73.7603 2.54958 74.0191 1.60062 74.5367 0.953598C75.0543 0.30658 75.8738 0.00463867 77.0385 0.00463867C78.2031 0.00463867 79.0227 0.349715 79.5403 0.996733C80.0579 1.64375 80.3167 2.59271 80.3167 3.80048V8.2002C80.3598 9.19229 80.101 10.1844 79.5403 11.0471C79.0227 11.651 78.16 11.996 77.0385 11.996ZM77.0385 1.42808C76.7797 1.42808 76.5209 1.47121 76.3052 1.55748C76.1327 1.64375 75.9601 1.77315 75.8738 1.94569C75.7876 2.16137 75.7013 2.37704 75.6582 2.59271C75.615 2.89465 75.615 3.15346 75.615 3.4554V8.50214C75.615 8.80408 75.615 9.06289 75.6582 9.36483C75.7013 9.5805 75.7444 9.79618 75.8738 10.0118C75.9601 10.1844 76.1327 10.3569 76.3052 10.4432C76.564 10.5295 76.7797 10.5726 77.0385 10.5726C77.2973 10.5726 77.5561 10.5295 77.7718 10.4432C77.9443 10.3569 78.1168 10.2275 78.2031 10.0118C78.2894 9.79618 78.3756 9.5805 78.4188 9.36483C78.4619 9.06289 78.4619 8.80408 78.4619 8.50214V3.41227C78.4619 3.11032 78.4619 2.85152 78.4188 2.54958C78.3756 2.3339 78.3325 2.11823 78.2031 1.94569C78.1168 1.77315 77.9443 1.64375 77.7718 1.55748C77.5561 1.47121 77.2973 1.42808 77.0385 1.42808Z" fill="#E9652B"/>
<path d="M77.0385 11.9097C76.5209 11.9097 76.0464 11.8235 75.5719 11.6509C75.1837 11.4784 74.8386 11.2196 74.5798 10.8745C74.321 10.5294 74.1485 10.1412 74.0622 9.70986C73.9328 9.19225 73.8896 8.67464 73.8896 8.15702V3.7573C73.8896 2.54953 74.1485 1.64371 74.6229 0.996689C75.0974 0.349671 75.917 0.0477295 77.0385 0.0477295C78.16 0.0477295 78.9795 0.349671 79.454 0.996689C79.9285 1.64371 80.1873 2.54953 80.1873 3.71416V8.11389C80.2304 9.10598 79.9716 10.0549 79.454 10.9176C78.9795 11.6078 78.16 11.9097 77.0385 11.9097ZM76.262 10.4863C76.5209 10.5726 76.7797 10.6588 77.0385 10.6157C77.2973 10.6157 77.5561 10.5726 77.8149 10.4863C78.0306 10.4 78.16 10.2275 78.2894 10.0549C78.4188 9.83927 78.4619 9.6236 78.505 9.40792C78.5482 9.10598 78.5482 8.80404 78.5482 8.5021V3.41222C78.5482 3.11028 78.5482 2.85147 78.505 2.54953C78.4619 2.33386 78.3756 2.11819 78.2894 1.90251C78.2031 1.68684 78.0306 1.55744 77.8149 1.47117C77.5561 1.3849 77.2973 1.34177 77.0385 1.34177C76.7797 1.34177 76.5209 1.3849 76.262 1.47117C76.0464 1.55744 75.8738 1.68684 75.7876 1.90251C75.7013 2.11819 75.615 2.33386 75.5719 2.54953C75.5288 2.85147 75.5288 3.11028 75.5288 3.41222V8.5021C75.5288 8.80404 75.5288 9.10598 75.5719 9.40792C75.615 9.6236 75.6582 9.83927 75.7876 10.0549C75.8738 10.2706 76.0464 10.4 76.262 10.4863Z" fill="#E9652B"/>
<path d="M86.1829 11.8666L84.6732 6.43167H83.5517V11.8666H81.7832V0.134033H84.1987C85.4065 0.134033 86.2692 0.39284 86.8299 0.86732C87.3907 1.3418 87.6926 2.16136 87.6926 3.28285C87.6926 4.74943 87.2182 5.69839 86.2692 6.04346L87.9514 11.9098H86.1829V11.8666ZM84.0693 5.0945C84.5869 5.13764 85.1046 5.00823 85.5359 4.70629C85.7947 4.44749 85.9673 3.97301 85.9673 3.28285C86.0104 2.76524 85.881 2.29076 85.579 1.85941C85.3202 1.60061 84.8889 1.4712 84.1987 1.4712H83.5517V5.13764L84.0693 5.0945Z" fill="#E9652B"/>
<path d="M81.8696 11.7805V0.220459H84.1989C85.3635 0.220459 86.2262 0.479266 86.787 0.953746C87.3477 1.42823 87.6065 2.20465 87.6065 3.28301C87.6065 4.79272 87.132 5.69854 86.1831 6.00049L87.8222 11.8236H86.2693L84.7596 6.3887H83.5087V11.8236H81.8696V11.7805ZM83.4656 5.18093H84.0695C84.5871 5.22406 85.1478 5.09466 85.5792 4.74958C85.8811 4.49078 86.0537 3.97316 86.0537 3.23988C86.0968 2.72226 85.9674 2.20465 85.6655 1.7733C85.4067 1.47136 84.9322 1.34196 84.1989 1.34196H83.4656V5.18093Z" fill="#E9652B"/>
<path d="M92.0492 11.996C91.1865 12.0392 90.3238 11.6941 89.7631 11.0471C89.2023 10.3138 88.9004 9.4511 88.9004 8.54527V8.45901L90.4964 8.02766V8.11393C90.5826 9.75304 91.1002 10.5295 92.0492 10.5295C92.3943 10.5295 92.6962 10.4432 92.955 10.2275C93.1707 9.96871 93.3001 9.62364 93.257 9.27856C93.257 9.06289 93.2138 8.84722 93.1707 8.63154C93.1276 8.41587 93.0413 8.24333 92.9119 8.0708C92.7825 7.89826 92.6531 7.76885 92.5237 7.59632C92.3943 7.46691 92.2217 7.29437 92.0061 7.12184L90.065 5.39645C89.7199 5.05138 89.418 4.7063 89.2023 4.23182C89.0298 3.75734 88.9004 3.28286 88.9435 2.76525C88.9004 2.03196 89.1592 1.29867 89.7199 0.737924C90.2807 0.22031 91.014 -0.0384971 91.7473 0.0046374H91.8335C92.61 -0.0384971 93.3432 0.22031 93.904 0.737924C94.4216 1.38494 94.7235 2.2045 94.7667 3.06719V3.15346L93.2138 3.5848V3.4554C93.1707 3.23973 93.1707 3.02405 93.1276 2.80838C93.0844 2.63584 93.0413 2.42017 92.955 2.24763C92.9119 2.07509 92.8256 1.94569 92.6962 1.77315C92.61 1.64375 92.4374 1.55748 92.308 1.51435C92.1355 1.47121 92.0061 1.42808 91.8335 1.42808H91.7473C90.9277 1.47121 90.5395 1.85942 90.5395 2.59271C90.5395 2.89465 90.5826 3.15346 90.712 3.41227C90.8414 3.67107 91.0571 3.92988 91.2728 4.10242L93.2138 5.8278C93.6883 6.25914 94.1197 6.77676 94.4216 7.33751C94.7235 7.89826 94.8961 8.50214 94.8961 9.14916C94.9392 9.92558 94.6373 10.6589 94.1197 11.2196C93.5589 11.7372 92.8256 12.0392 92.0492 11.996Z" fill="#E9652B"/>
<path d="M92.0491 11.9098C91.2295 11.9529 90.3669 11.6509 89.8061 11.0039C89.2454 10.3138 88.9434 9.45108 88.9434 8.54526L90.3669 8.15705C90.4531 9.83929 91.0139 10.6589 92.006 10.6589C92.351 10.6589 92.6961 10.5726 92.9549 10.3138C93.1706 10.0118 93.3 9.66676 93.3 9.27854C93.3 9.06287 93.2569 8.80406 93.2137 8.58839C93.1706 8.37272 93.0412 8.15705 92.9118 7.98451C92.7824 7.81197 92.653 7.68257 92.5236 7.51003C92.3942 7.38063 92.2216 7.20809 92.006 7.03555L90.0649 5.31017C89.7198 5.00823 89.4179 4.62002 89.2022 4.18867C89.0297 3.71419 88.9003 3.23971 88.9434 2.76523C88.9003 2.03194 89.1591 1.34179 89.6767 0.781042C90.2375 0.306562 90.9276 0.0477548 91.704 0.0477548C92.4805 -0.0385142 93.2137 0.220293 93.7745 0.781042C94.2921 1.42806 94.594 2.24762 94.594 3.06717L93.3 3.45538C93.2569 3.19658 93.2569 2.9809 93.2137 2.76523C93.1706 2.54956 93.1275 2.37702 93.0412 2.16135C92.9981 1.98881 92.8687 1.81627 92.7824 1.68687C92.653 1.55746 92.5236 1.47119 92.3511 1.38493C92.1354 1.29866 91.9628 1.29866 91.7472 1.29866C90.8845 1.34179 90.4531 1.77314 90.4531 2.54956C90.4531 2.8515 90.4963 3.15344 90.6257 3.41225C90.7982 3.67106 90.9707 3.92986 91.2295 4.14554L93.1706 5.87092C93.6451 6.30226 94.0764 6.77674 94.3784 7.33749C94.6803 7.89824 94.8097 8.50212 94.8097 9.10601C94.8529 9.83929 94.5509 10.5726 94.0333 11.1333C93.5157 11.6941 92.7824 11.9529 92.0491 11.9098Z" fill="#E9652B"/>
</svg>
