<svg width="116" height="33" viewBox="0 0 116 33" fill="none" xmlns="http://www.w3.org/2000/svg">
<path d="M75.9759 33C75.4266 29.28 74.8772 25.56 74.3279 21.9C63.3958 21.9 52.5186 21.9 41.5865 21.9C41.0372 25.62 40.4878 29.34 39.9385 33C51.9143 33 63.9451 33 75.9759 33Z" fill="#E9652B"/>
<path d="M37.7954 21.9C26.9732 21.9 16.096 21.9 5.27377 21.9C3.51585 25.62 1.75792 29.34 0 33C11.9209 33 23.8419 33 35.8177 33C36.4769 29.34 37.1362 25.62 37.7954 21.9Z" fill="#E9652B"/>
<path d="M78.061 21.9C78.7203 25.62 79.4344 29.34 80.0936 33C92.0146 33 103.935 33 115.911 33C114.153 29.28 112.396 25.56 110.638 21.9C99.7604 21.9 88.8833 21.9 78.061 21.9Z" fill="#E9652B"/>
<path d="M10.8792 10.08C9.39594 13.14 7.96762 16.2 6.48438 19.32C17.0869 19.32 27.6893 19.32 38.2369 19.32C38.7862 16.26 39.3356 13.2 39.8849 10.08H10.8792Z" fill="#E9652B"/>
<path d="M43.2899 10.08C42.8504 13.14 42.356 16.2 41.9165 19.32C52.5739 19.32 63.2313 19.32 73.8888 19.32C73.4493 16.26 72.9549 13.2 72.5154 10.08H43.2899Z" fill="#E9652B"/>
<path d="M75.9209 10.08C76.4703 13.14 77.0196 16.2 77.569 19.32C88.1714 19.32 98.7739 19.32 109.321 19.32C107.838 16.26 106.41 13.2 104.927 10.08H75.9209Z" fill="#E9652B"/>
<path d="M103.883 7.86C102.62 5.22 101.356 2.58 100.147 0H74.0532C74.5476 2.64 74.9871 5.28 75.4815 7.86H103.883Z" fill="#E9652B"/>
<path d="M72.2391 7.86C71.8546 5.22 71.47 2.58 71.0855 0H44.8265C44.4419 2.64 44.0574 5.28 43.6729 7.86H72.2391Z" fill="#E9652B"/>
<path d="M40.379 7.86C40.8734 5.22 41.3129 2.58 41.8073 0H15.7131C14.4496 2.64 13.241 5.28 11.9775 7.86H40.379Z" fill="#E9652B"/>
</svg>
