<svg width="119" height="26" viewBox="0 0 119 26" fill="none" xmlns="http://www.w3.org/2000/svg">
<path d="M0.000976562 25.4138V0H8.99582V2.54138H3.26552V11H7.71085V13.5035H3.26552V25.4138H0.000976562Z" fill="#E9652B"/>
<path d="M17.2258 25.7174C15.5241 25.7174 14.2391 25.3381 13.3361 24.6174C12.4332 23.8967 11.808 22.8725 11.4955 21.545C11.1829 20.2174 11.0093 18.6622 11.0093 16.8794V0.00012207H14.1002V16.9932C14.1002 18.0932 14.1696 19.0794 14.3085 19.9898C14.4475 20.9001 14.7253 21.5829 15.1768 22.1139C15.6283 22.645 16.2881 22.9105 17.1911 22.9105C18.094 22.9105 18.7886 22.645 19.2401 22.1139C19.6916 21.5829 19.9694 20.8622 20.1083 19.9898C20.2472 19.0794 20.3167 18.0932 20.3167 16.9932V0.00012207H23.3728V16.8415C23.3728 18.6243 23.1992 20.1794 22.8866 21.507C22.5741 22.8346 21.9489 23.8588 21.046 24.5794C20.1778 25.3381 18.8928 25.7174 17.2258 25.7174Z" fill="#E9652B"/>
<path d="M26.8115 25.4139V0.00012207H29.0342L35.6327 16.8794V0.00012207H38.3416V25.4139H36.2578L29.5551 8.07944V25.4139H26.8115Z" fill="#E9652B"/>
<path d="M41.9883 25.4139V0.00012207H47.0587C48.7952 0.00012207 50.1496 0.30357 51.1568 0.872536C52.1639 1.4415 52.8932 2.31392 53.31 3.45185C53.7267 4.58978 53.9698 6.03116 53.9698 7.73806V17.0691C53.9698 18.8519 53.7615 20.3691 53.31 21.6208C52.8932 22.8725 52.1639 23.7829 51.2262 24.4277C50.2538 25.0725 48.9688 25.376 47.3366 25.376H41.9883V25.4139ZM45.2181 22.8725H47.0587C48.2395 22.8725 49.073 22.607 49.594 22.1139C50.0802 21.6208 50.3927 20.8622 50.4969 19.9139C50.6011 18.9656 50.6706 17.7898 50.6706 16.4243V8.19323C50.6706 6.86564 50.6011 5.80357 50.4275 5.00702C50.2885 4.17254 49.9413 3.60357 49.4203 3.22426C48.8994 2.84495 48.1006 2.6553 46.9893 2.6553H45.2528L45.2181 22.8725Z" fill="#E9652B"/>
<path d="M57.3379 25.4139V0.00012207H62.8946C64.2837 0.00012207 65.395 0.265639 66.1938 0.834605C66.9926 1.40357 67.583 2.20012 67.8955 3.18633C68.2428 4.17254 68.3817 5.38633 68.3817 6.71392C68.3817 7.88978 68.2081 9.02771 67.8608 10.0139C67.5135 11.0381 66.9231 11.8346 66.1244 12.4415C65.3256 13.0484 64.249 13.3519 62.9293 13.3519H59.5258V25.4139H57.3379ZM59.5258 11.607H62.3042C63.2418 11.607 64.0059 11.4553 64.5963 11.1519C65.1867 10.8484 65.6034 10.3553 65.8813 9.63461C66.1591 8.91392 66.298 7.96564 66.298 6.75185C66.298 5.46219 66.1938 4.43806 65.9507 3.71737C65.7076 2.99668 65.3256 2.50357 64.7699 2.20012C64.2143 1.93461 63.4155 1.78288 62.3736 1.78288H59.5606V11.607H59.5258Z" fill="white"/>
<path d="M68.7646 25.4139L73.6615 0.00012207H75.9536L80.8851 25.4139H78.7319L77.5858 18.6243H72.0292L70.8484 25.4139H68.7646ZM72.3765 16.8794H77.3427L74.877 3.18633L72.3765 16.8794Z" fill="white"/>
<path d="M83.7324 25.4139V0.00012207H85.2952L92.6925 19.7243V0.00012207H94.6026V25.4139H93.0398L85.6078 5.46219V25.4139H83.7324Z" fill="white"/>
<path d="M98.6313 25.4139V0.00012207H107.036V1.85874H100.819V11.3794H105.89V13.1243H100.819V23.5932H107.071V25.376H98.6313V25.4139Z" fill="white"/>
<path d="M110.092 25.4139V0.00012207H112.28V23.6312H118.879V25.4139H110.092Z" fill="white"/>
</svg>
