<svg width="24" height="24" viewBox="0 0 24 24" fill="none" xmlns="http://www.w3.org/2000/svg">
<mask id="mask0_630_2378" style="mask-type:alpha" maskUnits="userSpaceOnUse" x="0" y="0" width="24" height="24">
<rect width="24" height="24" fill="#D9D9D9"/>
</mask>
<g mask="url(#mask0_630_2378)">
<path d="M11.75 16H12.475V15.2C12.9417 15.1333 13.3375 14.9417 13.6625 14.625C13.9875 14.3083 14.15 13.9 14.15 13.4C14.15 12.9667 13.9833 12.6042 13.65 12.3125C13.3167 12.0208 12.9333 11.7833 12.5 11.6V9.75C12.6667 9.8 12.8042 9.88333 12.9125 10C13.0208 10.1167 13.1 10.2583 13.15 10.425L14.05 10.05C13.9333 9.7 13.7333 9.42083 13.45 9.2125C13.1667 9.00417 12.85 8.86667 12.5 8.8V8H11.75V8.775C11.2833 8.825 10.8875 8.99583 10.5625 9.2875C10.2375 9.57917 10.075 9.96667 10.075 10.45C10.075 10.9 10.2458 11.275 10.5875 11.575C10.9292 11.875 11.3167 12.1167 11.75 12.3V14.275C11.4833 14.1917 11.2583 14.05 11.075 13.85C10.8917 13.65 10.7667 13.4167 10.7 13.15L9.825 13.525C9.95833 13.9917 10.1917 14.375 10.525 14.675C10.8583 14.975 11.2667 15.1583 11.75 15.225V16ZM12.5 14.25V12.6C12.6833 12.6833 12.8458 12.7833 12.9875 12.9C13.1292 13.0167 13.2 13.1917 13.2 13.425C13.2 13.6917 13.1333 13.8792 13 13.9875C12.8667 14.0958 12.7 14.1833 12.5 14.25ZM11.75 11.275C11.5667 11.1917 11.4 11.0917 11.25 10.975C11.1 10.8583 11.025 10.6833 11.025 10.45C11.025 10.2167 11.1 10.0458 11.25 9.9375C11.4 9.82917 11.5667 9.75833 11.75 9.725V11.275ZM8 19C6.05 19 4.39583 18.3208 3.0375 16.9625C1.67917 15.6042 1 13.95 1 12C1 10.05 1.67917 8.39583 3.0375 7.0375C4.39583 5.67917 6.05 5 8 5H16C17.95 5 19.6042 5.67917 20.9625 7.0375C22.3208 8.39583 23 10.05 23 12C23 13.95 22.3208 15.6042 20.9625 16.9625C19.6042 18.3208 17.95 19 16 19H8ZM8 17H16C17.3833 17 18.5625 16.5125 19.5375 15.5375C20.5125 14.5625 21 13.3833 21 12C21 10.6167 20.5125 9.4375 19.5375 8.4625C18.5625 7.4875 17.3833 7 16 7H8C6.61667 7 5.4375 7.4875 4.4625 8.4625C3.4875 9.4375 3 10.6167 3 12C3 13.3833 3.4875 14.5625 4.4625 15.5375C5.4375 16.5125 6.61667 17 8 17Z" fill="white"/>
</g>
</svg>
